<svg style="left: 0px; top: 0px; width: 100%; height: 100%; display: block; min-width: 811px; min-height: 846px;" content="&lt;mxfile&gt;&lt;diagram id=&quot;d&quot; name=&quot;P&quot;&gt;7Zxbb+MoFMc/jaXuQyMbX5I8pmnnIs1qVhPtSvMUYRsn7BBjAW7T/fQLviTE0E5nNHZtddpqJhyMg/8/LocDieOvD8f3DBb7P2mKiOPfOe7KAa7689eMUnFhajMOxzUiRL7GqePfOkDZQZX77mXXe/X1BWQoFz93i315gHld5h6SEtXWD7XVvfpKyz/qXC4eSZP7sMcCbQqYqPSDfGzHv9mLg3zuW0++ZLTMU5Q2KRhzSkqBVizZ4P9Qaz2lVLVuMkzImhLKqjfwsywDSSLtXDD6DWk5aRRHYaRK0Fy09wtk2lSiEeceMYGOmsmU5SzOe0QPSLBHmW6K+EGj6ANOxb65TdTY9gjv9s3bhY0N8jq9O93qOR7S3iB5ES2GCmrAclrovSEKLIjcLMgyG6IoWaA4GxDRonn8xyYZGsCihQUY8IcglhBYpmh7SA1s60+rv2/vZionkrIdoZSoYDQm6CAvTKR46Ci0PGmRWkOcC+6AdX1Jhnf9ovciEz3y0hDNbeiX0dyH3d7p9Yjecy/Ze4EJ3wst8KMh2KeYJ1Q+IUbcoH/7cbP+/M/dl493G6MJ3CM19mYwUaRPGd9y+pBfxzA9oedvmj2Yj5k9gbGt039a3VziRsdCNpCD0kaKxKigCSVavkCHgkCB3jbrbj+X0+2IWMNCgoPJ3tLNZUZBOUqvz9dc8gdz1Z1hnuJUUpavZfX2NH3buLtde1y4ecJwIfg2psfhfTEbuSxUv1ZfrPrpkAM9kgu7E7JnkgOBhZzXum39ovMMYvwxT7YCEbRj8DATfXc8YOKT3W6RBjZ8CxD7Bj63T3ygg29uweda8A3iS3Ngp7ejdEfQNqUJnxWPvwHqI6et/70eQN8AKP0fysSWI86xXOD85tfhF46JH0HQ4tJWRne1q3zYk2Nzta5WvjJnTav/VB2AS8UeMUetYFKc71SFVblXiTGh6IkY03wZu24Hut+nuxNdQvfbcIUG3QcW6MO4OwIV5rTpzWT6i0QvJ0xXjbwaei2yoeIU3aXu4O7Rj0UT++ze/iXo0DNBe7ZYVTiIcyRBmzMsUKA3JbtHjwr1OULFK2SdlUx3KfRGOY8ftDkT+wr0LZZYRc3vRDYmOFdDPC/j62q4Vg3hSqoGCUGk57F75KSD0ZMODNLBrJqVJbwqwugyxEtyEWssi7SOOf0evM+oo1GjhuYcvWn7qzR7Gt33765A373W4mZniwTZUcaLMAi7HlefKLvxxMi2y2fzuIJBUJqzsI4SaCg/oDjG7QbuG4V52nodJ0xzptVh+hrML5+k4UbFgsWbBhqMu3duD5QhA+pspmbVozc30FX7uBe0LiXOaY46PBoTJHiXy2QiBZarZv9GCYsTSFZNxgGnqXqbG1vzOLeJIRezYdCFZ0Yw5hZ2/hDssOwXUGCab3MqTIZ3cuXiNCEJVYpX/6giSkZ195yq/CRBXOUJlWojGq1nrLqzv6wUPvXsk4flUnWp2solKN2psEgMOWrX0tc0J0rKGOXJ/gDZN6cKlKj80bYpfZ+o+nnFaXzumgNFYNttGKSx0VIUpeDbvSSrWkinsX2usx21lDo3oFdYTaUQLTLryG89ytNrJKwLNDKBApuLPQxQ08U+b9+/9cj1aUJuj2FZdh6sk/YgkWtqutTNmDz7l9NX8J9HRM44QDcucqb/nOFcbR7w/gMS4wYXBGMGV50svgbX1jOrDwzX8SVeILV3IG9yo8rmWGCo7tKcfuvQVT7Tpkk2/kxO7zSj4keZ2NMdzWEL/UkvSU1xgcTW+iyaPQgisFw+B4/TkiVIe9baLCDbIdEOMe2jV87eD3NmSHmr9+jifXs/YCyZWTf6WreYNbs+sCpZ7/24GWbcXLWOldcZjI7r/NRTwaUdRXqKWoZQRYuoimnninsndTEc/jQp47DVtIGpGktS2p7qML3lRVqf5dRF1uo6FZWrKjcyg9HJrAna1RlMT2fQ6OyPUmdg19mfns5+o3MwSp19u87BNHWG4xubnxAZTnBkrhQe57BsU3iCY3Kl8DgHZJvCExuNoXItbMHdEUkNLQ6GrcqT0RxMQHOLszFpzf0JaG4ZT6as+WXdpf7PfYa0XdrHMFE7hTiv9iO/c2LryWBoCvn+lEjUgc82oUM+s9QomxRRFHqnM9Q2+4vo2kjqpA1xesb81P3au64Yg49a2YLWn9b+Xslzrf5SJZzzeeE5mAXLxTKau54Plu6irlsT7w3mUZUbBu7Cd5fzhf9cWzTaZV3bpzWqmu5Jpl8UXNwSGCNiNOX3WHwoY0dtg6vInHu1KWWT+goZNTdER7n3HQRzkASvuFW6aNrG9z5oB8AQTmgTtbPDXpWCHqpjGNK+qS+dBmXr5yn7/CRs9zSN55mYrV9H8isxV3btW2zaoaHzhTf/Aw==&lt;/diagram&gt;&lt;/mxfile&gt;"><g><g></g><g><g style="visibility: visible;" transform="translate(0.5,0.5)"><rect x="340" y="0" width="160" height="50" rx="10" ry="10" fill="#fff2cc" stroke="#d6b656" pointer-events="all"></rect></g><g style=""><g fill="#774400" font-family="Arial,Helvetica" text-anchor="middle" font-size="14px"><text x="420" y="31">Human (You)</text></g></g><g style="visibility: visible;" transform="translate(0.5,0.5)"><rect x="80" y="85" width="680" height="230" rx="12" ry="12" fill="#f0f4ff" stroke="#6c8ebf" pointer-events="all"></rect></g><g style=""><g fill="#774400" font-family="Arial,Helvetica" text-anchor="middle" font-size="14px"><text x="420" y="206">GitHub Repo (SutroYaro)</text></g></g><g style="visibility: visible;" transform="translate(0.5,0.5)"><rect x="100" y="145" width="150" height="60" rx="8" ry="8" fill="#e1d5e7" stroke="#9673a6" pointer-events="all"></rect></g><g style=""><g fill="#774400" font-family="Arial,Helvetica" text-anchor="middle" font-size="11px"><text x="175" y="166.5">CLAUDE.md</text><text x="175" y="179.5">problem context</text><text x="175" y="192.5">constraints, config</text></g></g><g style="visibility: visible;" transform="translate(0.5,0.5)"><rect x="270" y="145" width="150" height="60" rx="8" ry="8" fill="#e1d5e7" stroke="#9673a6" pointer-events="all"></rect></g><g style=""><g fill="#774400" font-family="Arial,Helvetica" text-anchor="middle" font-size="11px"><text x="345" y="166.5">DISCOVERIES.md</text><text x="345" y="179.5">proven facts</text><text x="345" y="192.5">known-bad configs</text></g></g><g style="visibility: visible;" transform="translate(0.5,0.5)"><rect x="100" y="225" width="150" height="60" rx="8" ry="8" fill="#e1d5e7" stroke="#9673a6" pointer-events="all"></rect></g><g style=""><g fill="#774400" font-family="Arial,Helvetica" text-anchor="middle" font-size="11px"><text x="175" y="246.5">LAB.md</text><text x="175" y="259.5">experiment protocol</text><text x="175" y="272.5">templates</text></g></g><g style="visibility: visible;" transform="translate(0.5,0.5)"><rect x="270" y="225" width="150" height="60" rx="8" ry="8" fill="#e1d5e7" stroke="#9673a6" pointer-events="all"></rect></g><g style=""><g fill="#774400" font-family="Arial,Helvetica" text-anchor="middle" font-size="11px"><text x="345" y="253">proposed-approaches.md</text><text x="345" y="266">27 candidate methods</text></g></g><g style="visibility: visible;" transform="translate(0.5,0.5)"><rect x="500" y="115" width="240" height="185" rx="8" ry="8" fill="#f5f5f5" stroke="#666666" pointer-events="all"></rect></g><g style=""><g fill="#774400" font-family="Arial,Helvetica" text-anchor="middle" font-size="12px"><text x="620" y="212.5">Automation Scripts</text></g></g><g style="visibility: visible;" transform="translate(0.5,0.5)"><rect x="520" y="175" width="200" height="30" rx="6" ry="6" fill="#d5e8d4" stroke="#82b366" pointer-events="all"></rect></g><g style=""><g fill="#774400" font-family="Arial,Helvetica" text-anchor="middle" font-size="10px"><text x="620" y="194">sync_telegram.ts</text></g></g><g style="visibility: visible;" transform="translate(0.5,0.5)"><rect x="520" y="215" width="200" height="30" rx="6" ry="6" fill="#d5e8d4" stroke="#82b366" pointer-events="all"></rect></g><g style=""><g fill="#774400" font-family="Arial,Helvetica" text-anchor="middle" font-size="10px"><text x="620" y="234">sync_google_docs.py</text></g></g><g style="visibility: visible;" transform="translate(0.5,0.5)"><rect x="520" y="255" width="200" height="30" rx="6" ry="6" fill="#d5e8d4" stroke="#82b366" pointer-events="all"></rect></g><g style=""><g fill="#774400" font-family="Arial,Helvetica" text-anchor="middle" font-size="10px"><text x="620" y="274">export_sessions.py</text></g></g><g style="visibility: visible;" transform="translate(0.5,0.5)"><rect x="260" y="380" width="320" height="60" rx="10" ry="10" fill="#ffe6cc" stroke="#d79b00" pointer-events="all"></rect></g><g style=""><g fill="#774400" font-family="Arial,Helvetica" text-anchor="middle" font-size="13px"><text x="420" y="407.5">Lead Agent</text><text x="420" y="423.5">(Claude Code / other coding agent)</text></g></g><g style="visibility: visible;" transform="translate(0.5,0.5)"><rect x="30" y="510" width="180" height="55" rx="8" ry="8" fill="#fff2cc" stroke="#d6b656" pointer-events="all"></rect></g><g style=""><g fill="#774400" font-family="Arial,Helvetica" text-anchor="middle" font-size="10px"><text x="120" y="535.5">1. Reads docs</text><text x="120" y="547.5">CLAUDE.md, DISCOVERIES.md</text></g></g><g style="visibility: visible;" transform="translate(0.5,0.5)"><rect x="230" y="510" width="180" height="55" rx="8" ry="8" fill="#fff2cc" stroke="#d6b656" pointer-events="all"></rect></g><g style=""><g fill="#774400" font-family="Arial,Helvetica" text-anchor="middle" font-size="10px"><text x="320" y="535.5">2. Surveys problem space</text><text x="320" y="547.5">27 approaches</text></g></g><g style="visibility: visible;" transform="translate(0.5,0.5)"><rect x="430" y="510" width="180" height="55" rx="8" ry="8" fill="#fff2cc" stroke="#d6b656" pointer-events="all"></rect></g><g style=""><g fill="#774400" font-family="Arial,Helvetica" text-anchor="middle" font-size="10px"><text x="520" y="535.5">3. Dispatches</text><text x="520" y="547.5">blind sub-agents (parallel)</text></g></g><g style="visibility: visible;" transform="translate(0.5,0.5)"><rect x="630" y="510" width="180" height="55" rx="8" ry="8" fill="#fff2cc" stroke="#d6b656" pointer-events="all"></rect></g><g style=""><g fill="#774400" font-family="Arial,Helvetica" text-anchor="middle" font-size="10px"><text x="720" y="535.5">4. Collects results</text><text x="720" y="547.5">updates DISCOVERIES.md</text></g></g><g style="visibility: visible;" transform="translate(0.5,0.5)"><rect x="100" y="640" width="120" height="45" rx="6" ry="6" fill="#f8cecc" stroke="#b85450" pointer-events="all"></rect></g><g style=""><g fill="#774400" font-family="Arial,Helvetica" text-anchor="middle" font-size="10px"><text x="160" y="660.5">Sub-agent 1</text><text x="160" y="672.5">GF(2)</text></g></g><g style="visibility: visible;" transform="translate(0.5,0.5)"><rect x="250" y="640" width="120" height="45" rx="6" ry="6" fill="#f8cecc" stroke="#b85450" pointer-events="all"></rect></g><g style=""><g fill="#774400" font-family="Arial,Helvetica" text-anchor="middle" font-size="10px"><text x="310" y="660.5">Sub-agent 2</text><text x="310" y="672.5">Hebbian</text></g></g><g style="visibility: visible;" transform="translate(0.5,0.5)"><rect x="400" y="640" width="120" height="45" rx="6" ry="6" fill="#f8cecc" stroke="#b85450" pointer-events="all"></rect></g><g style=""><g fill="#774400" font-family="Arial,Helvetica" text-anchor="middle" font-size="10px"><text x="460" y="660.5">Sub-agent 3</text><text x="460" y="672.5">RL Bandit</text></g></g><g style="visibility: visible;" transform="translate(0.5,0.5)"><rect x="540" y="645" width="70" height="35" fill="none" stroke="white" pointer-events="stroke" visibility="hidden" stroke-width="9"></rect><rect x="540" y="645" width="70" height="35" fill="none" stroke="none" pointer-events="all"></rect></g><g style=""><g fill="#774400" font-family="Arial,Helvetica" text-anchor="middle" font-size="13px"><text x="575" y="668">... x17</text></g></g><g style="visibility: visible;" transform="translate(0.5,0.5)"><rect x="100" y="700" width="440" height="35" fill="none" stroke="white" pointer-events="stroke" visibility="hidden" stroke-width="9"></rect><rect x="100" y="700" width="440" height="35" fill="none" stroke="none" pointer-events="all"></rect></g><g style=""><g fill="#999999" font-family="Arial,Helvetica" text-anchor="middle" font-size="10px"><text x="320" y="715.5">Each agent is isolated: no access to other agents'</text><text x="320" y="727.5">results or knowledge base. Read-only benchmark code.</text></g></g><g style="visibility: visible;" transform="translate(0.5,0.5)"><rect x="200" y="760" width="280" height="35" rx="8" ry="8" fill="#dae8fc" stroke="#6c8ebf" pointer-events="all"></rect></g><g style=""><g fill="#774400" font-family="Arial,Helvetica" text-anchor="middle" font-size="13px"><text x="340" y="783">Outputs (per agent)</text></g></g><g style="visibility: visible;" transform="translate(0.5,0.5)"><rect x="120" y="815" width="120" height="30" rx="6" ry="6" fill="#d5e8d4" stroke="#82b366" pointer-events="all"></rect></g><g style=""><g fill="#774400" font-family="Arial,Helvetica" text-anchor="middle" font-size="10px"><text x="180" y="834">experiment.py</text></g></g><g style="visibility: visible;" transform="translate(0.5,0.5)"><rect x="280" y="815" width="120" height="30" rx="6" ry="6" fill="#d5e8d4" stroke="#82b366" pointer-events="all"></rect></g><g style=""><g fill="#774400" font-family="Arial,Helvetica" text-anchor="middle" font-size="10px"><text x="340" y="834">results.json</text></g></g><g style="visibility: visible;" transform="translate(0.5,0.5)"><rect x="440" y="815" width="120" height="30" rx="6" ry="6" fill="#d5e8d4" stroke="#82b366" pointer-events="all"></rect></g><g style=""><g fill="#774400" font-family="Arial,Helvetica" text-anchor="middle" font-size="10px"><text x="500" y="834">findings.md</text></g></g><g style="visibility: visible;" transform="translate(0.5,0.5)"><path d="M 420 50 L 420 78.63" fill="none" stroke="white" stroke-miterlimit="10" pointer-events="stroke" visibility="hidden" stroke-width="9"></path><path d="M 420 50 L 420 78.63" fill="none" stroke="#6482b9" stroke-miterlimit="10" pointer-events="stroke"></path><path d="M 420 83.88 L 416.5 76.88 L 420 78.63 L 423.5 76.88 Z" fill="#6482b9" stroke="#6482b9" stroke-miterlimit="10" pointer-events="all"></path></g><g style=""><g fill="#446299" font-family="Arial,Helvetica" text-anchor="middle" font-size="11px"><text x="420" y="72.5">writes specs + initial facts</text></g></g><g style="visibility: visible;" transform="translate(0.5,0.5)"><path d="M 420 315 L 420 373.63" fill="none" stroke="white" stroke-miterlimit="10" pointer-events="stroke" visibility="hidden" stroke-width="9"></path><path d="M 420 315 L 420 373.63" fill="none" stroke="#6482b9" stroke-miterlimit="10" pointer-events="stroke"></path><path d="M 420 378.88 L 416.5 371.88 L 420 373.63 L 423.5 371.88 Z" fill="#6482b9" stroke="#6482b9" stroke-miterlimit="10" pointer-events="all"></path></g><g style=""><g fill="#446299" font-family="Arial,Helvetica" text-anchor="middle" font-size="11px"><text x="420" y="352.5">agent reads all docs first</text></g></g><g style="visibility: visible;" transform="translate(0.5,0.5)"><path d="M 580 300 L 580 373.63" fill="none" stroke="white" stroke-miterlimit="10" pointer-events="stroke" visibility="hidden" stroke-width="9"></path><path d="M 580 300 L 580 373.63" fill="none" stroke="#82b366" stroke-miterlimit="10" pointer-events="stroke"></path><path d="M 580 378.88 L 576.5 371.88 L 580 373.63 L 583.5 371.88 Z" fill="#82b366" stroke="#82b366" stroke-miterlimit="10" pointer-events="all"></path></g><g style=""><g fill="#446299" font-family="Arial,Helvetica" text-anchor="middle" font-size="11px"><text x="580" y="344.5">feeds live context</text></g></g><g style="visibility: visible;" transform="translate(0.5,0.5)"><path d="M 260 440 L 213.7 504.82" fill="none" stroke="white" stroke-miterlimit="10" pointer-events="stroke" visibility="hidden" stroke-width="9"></path><path d="M 260 440 L 213.7 504.82" fill="none" stroke="#6482b9" stroke-miterlimit="10" pointer-events="stroke"></path><path d="M 210.65 509.09 L 211.87 501.36 L 213.7 504.82 L 217.57 505.43 Z" fill="#6482b9" stroke="#6482b9" stroke-miterlimit="10" pointer-events="all"></path></g><g style="visibility: visible;" transform="translate(0.5,0.5)"><path d="M 210 537.5 L 223.63 537.5" fill="none" stroke="white" stroke-miterlimit="10" pointer-events="stroke" visibility="hidden" stroke-width="9"></path><path d="M 210 537.5 L 223.63 537.5" fill="none" stroke="#6482b9" stroke-miterlimit="10" pointer-events="stroke"></path><path d="M 228.88 537.5 L 221.88 541 L 223.63 537.5 L 221.88 534 Z" fill="#6482b9" stroke="#6482b9" stroke-miterlimit="10" pointer-events="all"></path></g><g style="visibility: visible;" transform="translate(0.5,0.5)"><path d="M 410 537.5 L 423.63 537.5" fill="none" stroke="white" stroke-miterlimit="10" pointer-events="stroke" visibility="hidden" stroke-width="9"></path><path d="M 410 537.5 L 423.63 537.5" fill="none" stroke="#6482b9" stroke-miterlimit="10" pointer-events="stroke"></path><path d="M 428.88 537.5 L 421.88 541 L 423.63 537.5 L 421.88 534 Z" fill="#6482b9" stroke="#6482b9" stroke-miterlimit="10" pointer-events="all"></path></g><g style="visibility: visible;" transform="translate(0.5,0.5)"><path d="M 610 537.5 L 623.63 537.5" fill="none" stroke="white" stroke-miterlimit="10" pointer-events="stroke" visibility="hidden" stroke-width="9"></path><path d="M 610 537.5 L 623.63 537.5" fill="none" stroke="#6482b9" stroke-miterlimit="10" pointer-events="stroke"></path><path d="M 628.88 537.5 L 621.88 541 L 623.63 537.5 L 621.88 534 Z" fill="#6482b9" stroke="#6482b9" stroke-miterlimit="10" pointer-events="all"></path></g><g style="visibility: visible;" transform="translate(0.5,0.5)"><path d="M 430 565 L 226 637.86" fill="none" stroke="white" stroke-miterlimit="10" pointer-events="stroke" visibility="hidden" stroke-width="9"></path><path d="M 430 565 L 226 637.86" fill="none" stroke="#6482b9" stroke-miterlimit="10" pointer-events="stroke"></path><path d="M 221.05 639.62 L 226.47 633.97 L 226 637.86 L 228.82 640.57 Z" fill="#6482b9" stroke="#6482b9" stroke-miterlimit="10" pointer-events="all"></path></g><g style="visibility: visible;" transform="translate(0.5,0.5)"><path d="M 430 565 L 373.98 635.03" fill="none" stroke="white" stroke-miterlimit="10" pointer-events="stroke" visibility="hidden" stroke-width="9"></path><path d="M 430 565 L 373.98 635.03" fill="none" stroke="#6482b9" stroke-miterlimit="10" pointer-events="stroke"></path><path d="M 370.7 639.13 L 372.34 631.47 L 373.98 635.03 L 377.8 635.85 Z" fill="#6482b9" stroke="#6482b9" stroke-miterlimit="10" pointer-events="all"></path></g><g style="visibility: visible;" transform="translate(0.5,0.5)"><path d="M 520 565 L 520 633.63" fill="none" stroke="white" stroke-miterlimit="10" pointer-events="stroke" visibility="hidden" stroke-width="9"></path><path d="M 520 565 L 520 633.63" fill="none" stroke="#6482b9" stroke-miterlimit="10" pointer-events="stroke"></path><path d="M 520 638.88 L 516.5 631.88 L 520 633.63 L 523.5 631.88 Z" fill="#6482b9" stroke="#6482b9" stroke-miterlimit="10" pointer-events="all"></path></g><g style="visibility: visible;" transform="translate(0.5,0.5)"><path d="M 200 685 L 200 753.63" fill="none" stroke="white" stroke-miterlimit="10" pointer-events="stroke" visibility="hidden" stroke-width="9"></path><path d="M 200 685 L 200 753.63" fill="none" stroke="#6482b9" stroke-miterlimit="10" pointer-events="stroke"></path><path d="M 200 758.88 L 196.5 751.88 L 200 753.63 L 203.5 751.88 Z" fill="#6482b9" stroke="#6482b9" stroke-miterlimit="10" pointer-events="all"></path></g><g style="visibility: visible;" transform="translate(0.5,0.5)"><path d="M 310 685 L 310 753.63" fill="none" stroke="white" stroke-miterlimit="10" pointer-events="stroke" visibility="hidden" stroke-width="9"></path><path d="M 310 685 L 310 753.63" fill="none" stroke="#6482b9" stroke-miterlimit="10" pointer-events="stroke"></path><path d="M 310 758.88 L 306.5 751.88 L 310 753.63 L 313.5 751.88 Z" fill="#6482b9" stroke="#6482b9" stroke-miterlimit="10" pointer-events="all"></path></g><g style="visibility: visible;" transform="translate(0.5,0.5)"><path d="M 460 685 L 460 753.63" fill="none" stroke="white" stroke-miterlimit="10" pointer-events="stroke" visibility="hidden" stroke-width="9"></path><path d="M 460 685 L 460 753.63" fill="none" stroke="#6482b9" stroke-miterlimit="10" pointer-events="stroke"></path><path d="M 460 758.88 L 456.5 751.88 L 460 753.63 L 463.5 751.88 Z" fill="#6482b9" stroke="#6482b9" stroke-miterlimit="10" pointer-events="all"></path></g><g style="visibility: visible;" transform="translate(0.5,0.5)"><path d="M 372.5 760 Q 372.5 476.5 358.75 476.5 Q 345 476.5 345 211.37" fill="none" stroke="white" stroke-miterlimit="10" pointer-events="stroke" visibility="hidden" stroke-width="9"></path><path d="M 372.5 760 Q 372.5 476.5 358.75 476.5 Q 345 476.5 345 211.37" fill="none" stroke="#e65100" stroke-miterlimit="10" stroke-dasharray="3 3" pointer-events="stroke"></path><path d="M 345 206.12 L 348.5 213.12 L 345 211.37 L 341.5 213.12 Z" fill="#e65100" stroke="#e65100" stroke-miterlimit="10" pointer-events="all"></path></g><g style=""><g fill="#e65100" font-family="Arial,Helvetica" text-anchor="middle" font-size="11px"><text x="365" y="481">feeds back into DISCOVERIES.md</text></g></g><g style="visibility: visible;" transform="translate(0.5,0.5)"><rect x="200" y="88" width="240" height="22" fill="none" stroke="white" pointer-events="stroke" visibility="hidden" stroke-width="9"></rect><rect x="200" y="88" width="240" height="22" fill="none" stroke="none" pointer-events="all"></rect></g><g style=""><g fill="#4472c4" font-family="Arial,Helvetica" text-anchor="middle" font-size="13px"><text x="320" y="104.5">GitHub Repo (SutroYaro)</text></g></g><g style="visibility: visible;" transform="translate(0.5,0.5)"><rect x="540" y="118" width="160" height="22" fill="none" stroke="white" pointer-events="stroke" visibility="hidden" stroke-width="9"></rect><rect x="540" y="118" width="160" height="22" fill="none" stroke="none" pointer-events="all"></rect></g><g style=""><g fill="#666666" font-family="Arial,Helvetica" text-anchor="middle" font-size="11px"><text x="620" y="133.5">Automation Scripts</text></g></g></g><g></g><g></g></g></svg>